<svg id="图层_1" data-name="图层 1" xmlns="http://www.w3.org/2000/svg" viewBox="0 0 1080 1920"><defs><style>.cls-1{fill:#00d8c0;}.cls-2{fill:#eeaf32;}</style></defs><title>字母</title><path class="cls-1" d="M783.7,1229.51l-2.89,0a40.83,40.83,0,0,1-41-35.63q-1.83-14.14-3-25.64a18,18,0,0,0-29.8-11.65c-59.6,52.81-121.16,78.36-184.69,78.36-70.71,0-130.95-19.64-180.71-61.55-57.62-53.69-85.12-123.09-85.12-206.9,0-86.43,28.81-158.45,86.43-213.45,49.76-44.52,110-66.78,179.4-68.09,60.86,0,111.64,21.14,151.48,63.43,11.13,11.82,13.78,29.52,6,43.76l-.35.63c-10.81,19.41-36.08,24.9-54.47,12.44-33-22.34-67.39-33.83-102.64-33.83-40.59,1.31-78.57,18.33-115.24,51.07-38,36.67-56.31,85.12-56.31,144,0,52.38,15.71,96.9,49.76,133.57,32.74,34,73.33,49.76,123.09,49.76q48.17,0,97.11-26.34c65.58-35.36,104.25-106,99.91-180.36-5.12-87.86-7.63-158-8.28-210.33a34.07,34.07,0,0,1,28.5-34c4.14-.69,21.54-1.87,25.2-1.61a34,34,0,0,1,31.12,29A1959.69,1959.69,0,0,1,815.65,922q7.86,180.71,7.86,267.14,0,.18,0,.35A40.33,40.33,0,0,1,783.7,1229.51Z"/><path class="cls-2" d="M522.32,685c60.86,0,111.64,21.14,151.48,63.43,11.13,11.82,13.78,29.52,6,43.76l-.35.63a37.31,37.31,0,0,1-32.82,19.11A38.51,38.51,0,0,1,625,805.26c-33-22.34-67.39-33.83-102.64-33.83-40.6,1.31-78.57,18.33-115.24,51.07-38,36.67-56.31,85.12-56.31,144,0,52.38,15.72,96.9,49.76,133.57,32.74,34,73.33,49.76,123.09,49.76q48.17,0,97.11-26.34c65.58-35.36,104.25-106,99.91-180.36-5.12-87.86-7.63-158-8.28-210.33a34.07,34.07,0,0,1,28.5-34c3.74-.62,18.29-1.64,23.78-1.64.59,0,1.07,0,1.43,0a34,34,0,0,1,31.12,29A1959.66,1959.66,0,0,1,815.65,922q7.86,180.71,7.86,267.14,0,.18,0,.35a40.33,40.33,0,0,1-39.8,40l-2.89,0h-.59a40.83,40.83,0,0,1-40.46-35.63q-1.83-14.14-3-25.64a18,18,0,0,0-18-16.19,17.67,17.67,0,0,0-11.82,4.54c-59.6,52.81-121.16,78.36-184.69,78.36-70.71,0-130.95-19.64-180.71-61.55-57.62-53.69-85.12-123.09-85.12-206.9,0-86.43,28.81-158.45,86.43-213.45,49.76-44.52,110-66.78,179.4-68.09m0-62.5h-1.18c-85.41,1.61-159.4,29.87-219.89,84l-.75.67-.73.7a332.87,332.87,0,0,0-79.62,116.75c-17.35,43-26.15,90.73-26.15,141.9,0,102.7,35.33,187.7,105,252.62l1.15,1.07,1.2,1c60.07,50.59,134.42,76.24,221,76.24,59.37,0,116.78-17.61,171.36-52.46a103.49,103.49,0,0,0,86.54,47h1.48l3,0A102.83,102.83,0,0,0,886,1189.76h0v-.6c0-58.27-2.66-149.06-7.91-269.85A2024.8,2024.8,0,0,0,859,717.11a96.47,96.47,0,0,0-88.52-82.24c-1.84-.13-3.75-.19-5.86-.19-7.53,0-25.78,1.12-34,2.49a96.69,96.69,0,0,0-55.7,30.39,252.92,252.92,0,0,0-44.86-24.35c-32.84-13.73-69.09-20.69-107.73-20.69ZM449.66,868.28c25-22,49.08-33.28,73.68-34.34,22.22.22,44,7.77,66.56,23.06a100.74,100.74,0,0,0,56.71,17.43q3.92,0,7.8-.3c1.1,23.32,2.39,47.62,3.85,72.69,2.93,50.35-23.44,98.13-67.18,121.71-23.54,12.69-45.6,18.86-67.45,18.86-33.43,0-57.41-9.32-77.67-30.19-22.3-24.21-32.69-53-32.69-90.64,0-42,11.91-74.17,36.39-98.27Z"/></svg>