<svg id="图层_1" data-name="图层 1" xmlns="http://www.w3.org/2000/svg" viewBox="0 0 1080 1920"><defs><style>.cls-1{fill:#00d8c0;}</style></defs><title>字母</title><path class="cls-1" d="M783.7,1229.51l-2.89,0a40.83,40.83,0,0,1-41-35.63q-1.83-14.14-3-25.64a18,18,0,0,0-29.8-11.65c-59.6,52.81-121.16,78.36-184.69,78.36-70.71,0-130.95-19.64-180.71-61.55-57.62-53.69-85.12-123.09-85.12-206.9,0-86.43,28.81-158.45,86.43-213.45,49.76-44.52,110-66.78,179.4-68.09,60.86,0,111.64,21.14,151.48,63.43,11.13,11.82,13.78,29.52,6,43.76l-.35.63c-10.81,19.41-36.08,24.9-54.47,12.44-33-22.34-67.39-33.83-102.64-33.83-40.59,1.31-78.57,18.33-115.24,51.07-38,36.67-56.31,85.12-56.31,144,0,52.38,15.71,96.9,49.76,133.57,32.74,34,73.33,49.76,123.09,49.76q48.17,0,97.11-26.34c65.58-35.36,104.25-106,99.91-180.36-5.12-87.86-7.63-158-8.28-210.33a34.07,34.07,0,0,1,28.5-34c4.14-.69,21.54-1.87,25.2-1.61a34,34,0,0,1,31.12,29A1959.69,1959.69,0,0,1,815.65,922q7.86,180.71,7.86,267.14,0,.18,0,.35A40.33,40.33,0,0,1,783.7,1229.51Z"/></svg>